<svg xmlns="http://www.w3.org/2000/svg" viewBox="0 0 150 33.25"><defs><style>.cls-1{fill:#333;}.cls-2{fill:#32ce8e;}.cls-3{fill:#34e0a1;}</style></defs><g id="Layer_2" data-name="Layer 2"><g id="Layer_5" data-name="Layer 5"><path class="cls-1" d="M44.87,28,42.26,10.54h3.56L46.44,17c.21,2.24.49,4.77.61,7h.13c.11-2.22.4-4.61.58-7l.55-6.48h3.5L49.23,28Z"/><path class="cls-1" d="M61.82,15.2v8.08c0,3.46-1.63,4.94-4.67,4.94s-4.38-1.52-4.38-4.9V15.11c0-3.36,1.85-4.83,4.53-4.83S61.82,11.73,61.82,15.2Zm-5.66-.37v8.9c0,1.07.37,1.63,1.12,1.63s1.13-.5,1.13-1.65V14.8c0-1.09-.3-1.64-1.14-1.64S56.16,13.67,56.16,14.83Z"/><path class="cls-1" d="M63.62,10.54H67V25h4.21L70.88,28H63.62Z"/><path class="cls-1" d="M81.11,15.2v8.08c0,3.46-1.63,4.94-4.67,4.94-2.89,0-4.38-1.52-4.38-4.9V15.11c0-3.36,1.85-4.83,4.53-4.83S81.11,11.73,81.11,15.2Zm-5.66-.37v8.9c0,1.07.37,1.63,1.12,1.63s1.13-.5,1.13-1.65V14.8c0-1.09-.3-1.64-1.14-1.64S75.45,13.67,75.45,14.83Z"/><path class="cls-1" d="M85.7,22.59V23.8c0,1.14.29,1.68,1,1.68s1-.79,1-1.61c0-1.65-.31-2.12-2.09-3.61-2-1.66-3-2.65-3-5.21s.82-4.78,4.12-4.78c3.5,0,4,2.38,4,4.38v1H87.63v-1c0-1.06-.17-1.58-.84-1.58s-.81.53-.81,1.52.19,1.56,1.63,2.69c2.56,2,3.48,3.14,3.48,6,0,2.72-.94,5-4.4,5s-4.27-2-4.27-4.58V22.59Z"/><path class="cls-2" d="M94.29,28,91.67,10.54h3.56L95.86,17c.21,2.24.48,4.77.6,7h.14c.11-2.22.39-4.61.58-7l.55-6.48h3.49L98.65,28Z"/><path class="cls-2" d="M111.23,15.2v8.08c0,3.46-1.62,4.94-4.67,4.94-2.89,0-4.37-1.52-4.37-4.9V15.11c0-3.36,1.85-4.83,4.53-4.83S111.23,11.73,111.23,15.2Zm-5.66-.37v8.9c0,1.07.37,1.63,1.12,1.63s1.14-.5,1.14-1.65V14.8c0-1.09-.3-1.64-1.15-1.64S105.57,13.67,105.57,14.83Z"/><path class="cls-2" d="M114.91,28V22.38a3.66,3.66,0,0,0-.12-.9l-3.06-10.94h3.65c.47,2.52,1,5.4,1.23,7.6h.11c.28-2.09.84-5,1.29-7.6h3.46l-3.13,11.22a2.84,2.84,0,0,0-.08.75V28Z"/><path class="cls-2" d="M124.37,23.81,123.94,28h-3.41L123,10.54h5L130.5,28H127l-.48-4.15Zm1.89-2.95c-.25-2.23-.6-5.62-.76-7.29h-.13c-.06,1.22-.48,5.14-.71,7.29Z"/><path class="cls-2" d="M140.45,28h-2.52a9.67,9.67,0,0,1-.16-1.29A2.74,2.74,0,0,1,135,28.22c-2.71,0-3.47-2-3.47-4.86v-8.2c0-2.67,1.1-4.88,4.42-4.88,4,0,4.42,2.92,4.42,4.68v.78H137v-1c0-.84-.11-1.62-1-1.62-.76,0-1.05.56-1.05,1.69v8.93c0,1.19.39,1.62,1.05,1.62.82,0,1.1-.64,1.1-2.07V20.84h-1.16V18h4.52Z"/><path class="cls-2" d="M149.38,20.27h-3.59V25H150L149.6,28h-7.16V10.54h7.13v3h-3.78v3.81h3.59Z"/><rect class="cls-3" width="21.09" height="21.09" rx="1"/><rect class="cls-3" x="22.36" y="22.71" width="10.55" height="10.55" rx="1"/><rect class="cls-1" x="22.36" y="4.43" width="16.87" height="16.87" rx="1"/><rect class="cls-1" x="13.5" y="22.5" width="7.38" height="7.38" rx="1"/></g></g></svg>